<?xml version="1.0" encoding="utf-8"?>
<!-- Generated by Mocodo 4.2.4 -->
<svg width="280" height="204" viewBox="0 0 280 204" xmlns="http://www.w3.org/2000/svg">
<rect x="0" y="0" width="280" height="204" fill="none" stroke="none" stroke-width="0"/>

<!-- Association PUBLIER -->
<g>
	<line x1="39" y1="102" x2="131" y2="102" stroke="#000000" stroke-width="2"/>
	<line x1="232" y1="102" x2="131" y2="102" stroke="#000000" stroke-width="2"/>
	<g>
		<path d="M145 77 a14 14 90 0 1 14 14 V102 h-56 V91 a14 14 90 0 1 14 -14" fill="#FFFFFF" stroke="#FFFFFF" stroke-width="0"/>
		<path d="M159 102 v11 a14 14 90 0 1 -14 14 H117 a14 14 90 0 1 -14 -14 V102 H56" fill="#FFFFFF" stroke="#FFFFFF" stroke-width="0"/>
		<rect x="103" y="77" width="56" height="50" fill="none" rx="14" stroke="#000000" stroke-width="2"/>
		<line x1="103" y1="102" x2="159" y2="102" stroke="#000000" stroke-width="1"/>
		<text x="110" y="94.75" fill="#000000" font-family="Verdana" font-size="12">publier</text>
	</g>
	<text x="74" y="119" fill="#000000" font-family="Verdana" font-size="12">O,N</text>
	<text x="167" y="119" fill="#000000" font-family="Verdana" font-size="12">1,1</text>
</g>

<!-- Entity CLIENT -->
<g>
	<g>
		<rect x="9" y="9" width="60" height="25" fill="#FFFFFF" stroke="none" stroke-width="0" opacity="1"/>
		<rect x="9" y="34" width="60" height="161" fill="#FFFFFF" stroke="none" stroke-width="0" opacity="1"/>
		<rect x="9" y="9" width="60" height="186" fill="none" stroke="#000000" stroke-width="2" opacity="1"/>
		<line x1="9" y1="34" x2="69" y2="34" stroke="#000000" stroke-width="1"/>
	</g>
	<text x="23" y="26.75" fill="#000000" font-family="Verdana" font-size="12">client</text>
	<text x="14" y="51.8" fill="#000000" font-family="Verdana" font-size="12">idClient</text>
	<line x1="14" y1="54" x2="60" y2="54" stroke="#000000" stroke-width="1"/>
	<text x="14" y="68.8" fill="#000000" font-family="Verdana" font-size="12">nom</text>
	<text x="14" y="85.8" fill="#000000" font-family="Verdana" font-size="12">prenom</text>
	<text x="14" y="102.8" fill="#000000" font-family="Verdana" font-size="12">age</text>
	<text x="14" y="119.8" fill="#000000" font-family="Verdana" font-size="12">ville</text>
	<text x="14" y="136.8" fill="#000000" font-family="Verdana" font-size="12">email</text>
	<text x="14" y="153.8" fill="#000000" font-family="Verdana" font-size="12">mdp</text>
	<text x="14" y="170.8" fill="#000000" font-family="Verdana" font-size="12">image</text>
	<text x="14" y="187.8" fill="#000000" font-family="Verdana" font-size="12">idAdmin</text>
</g>

<!-- Entity EVENEMENT -->
<g>
	<g>
		<rect x="193" y="60" width="78" height="25" fill="#FFFFFF" stroke="none" stroke-width="0" opacity="1"/>
		<rect x="193" y="85" width="78" height="59" fill="#FFFFFF" stroke="none" stroke-width="0" opacity="1"/>
		<rect x="193" y="60" width="78" height="84" fill="none" stroke="#000000" stroke-width="2" opacity="1"/>
		<line x1="193" y1="85" x2="271" y2="85" stroke="#000000" stroke-width="1"/>
	</g>
	<text x="198" y="77.75" fill="#000000" font-family="Verdana" font-size="12">evenement</text>
	<text x="198" y="102.8" fill="#000000" font-family="Verdana" font-size="12">titre</text>
	<line x1="198" y1="105" x2="224" y2="105" stroke="#000000" stroke-width="1"/>
	<text x="198" y="119.8" fill="#000000" font-family="Verdana" font-size="12">contenu</text>
	<text x="198" y="136.8" fill="#000000" font-family="Verdana" font-size="12">image</text>
</g>
</svg>